<svg width="40" height="42" viewBox="0 0 40 42" fill="none" xmlns="http://www.w3.org/2000/svg">
<path d="M39.3648 20.6942C39.0414 20.6942 38.7793 20.9646 38.7793 21.2985C38.7793 30.6913 32.4247 38.6014 23.5711 40.3692V27.6938H27.509C27.798 27.6938 28.0437 27.4761 28.0878 27.1811L28.9484 21.39C29.0089 21.0359 28.7182 20.6856 28.3696 20.6942H23.5711V17.5408C23.585 14.3732 26.4271 15.1005 28.5973 15.0167C28.9207 15.0167 29.1827 14.7463 29.1827 14.4125V9.48216C29.1827 9.1876 28.9769 8.93622 28.6955 8.88655C24.4766 8.13546 18.647 7.86465 16.8053 13.5996C16.5806 14.3641 17.6651 14.7234 17.9175 13.9762C19.3829 9.3094 24.0957 9.36598 28.0118 10.0013V13.8082H26.1495C23.8021 13.8082 22.4006 15.2037 22.4006 17.5408V21.2985C22.4006 21.6323 22.6627 21.9027 22.9861 21.9027H27.6875L27.0067 26.4853H22.9861C22.6627 26.4853 22.4006 26.7557 22.4006 27.0896V41.0883C22.4006 41.265 22.4753 41.4326 22.6055 41.5475C32.4856 40.8896 39.9893 31.4251 39.9503 21.2989C39.9503 20.9646 39.6878 20.6942 39.3648 20.6942Z" fill="black"/>
<path d="M16.9195 16.2809C16.5961 16.2809 16.334 16.5513 16.334 16.8852V20.6942H11.9904C11.667 20.6942 11.4049 20.9646 11.4049 21.2985V27.0896C11.4049 27.4234 11.667 27.6938 11.9904 27.6938H16.3336V40.3692C-5.85245 35.3668 -2.76545 2.47523 19.9523 1.87012C29.0395 1.87012 36.8263 8.55312 38.4676 17.7607C38.5264 18.0889 38.8305 18.3062 39.1497 18.2453C39.4676 18.1848 39.6781 17.8699 39.6197 17.5417C37.8758 7.76099 29.6044 0.661621 19.9523 0.661621C-4.59707 1.36435 -7.35227 37.1156 16.8288 41.6852C17.1711 41.7479 17.5134 41.4498 17.5046 41.0883V27.0896C17.5046 26.7557 17.2425 26.4853 16.9191 26.4853H12.5759V21.9027H16.9191C17.2425 21.9027 17.5046 21.6323 17.5046 21.2985V16.8852C17.505 16.5513 17.2425 16.2809 16.9195 16.2809Z" fill="black"/>
</svg>
