<svg width="42" height="44" viewBox="0 0 42 44" fill="none" xmlns="http://www.w3.org/2000/svg">
<path d="M20.9997 0.609863C9.42055 0.609863 0 10.2976 0 22.2056C0 34.1138 9.42055 43.8013 20.9997 43.8013C32.5791 43.8013 42 34.1138 42 22.2056C41.9997 10.2976 32.5788 0.609863 20.9997 0.609863ZM20.9997 41.6713C10.5625 41.6713 2.07121 32.9392 2.07121 22.2056C2.07121 11.4723 10.5625 2.73983 20.9997 2.73983C31.4368 2.73983 39.9288 11.4723 39.9288 22.2056C39.9284 32.9392 31.4368 41.6713 20.9997 41.6713Z" fill="black"/>
<path d="M15.3661 18.5181H11.2686V30.106H15.3661V18.5181Z" fill="black"/>
<path d="M13.3173 16.412C14.4488 16.412 15.3661 15.4687 15.3661 14.3051C15.3661 13.1415 14.4488 12.1982 13.3173 12.1982C12.1858 12.1982 11.2686 13.1415 11.2686 14.3051C11.2686 15.4687 12.1858 16.412 13.3173 16.412Z" fill="black"/>
<path d="M26.7912 17.4658C25.8788 17.4658 25.1057 17.6425 24.4703 17.9955C23.8355 18.3489 23.2083 18.9365 22.5877 19.7589V17.7451H18.439V30.1072H22.894V24.1705C22.894 23.0451 23.0621 22.2657 23.3978 21.8309C23.7336 21.3965 24.1709 21.1791 24.7111 21.1791C25.2 21.1791 25.5795 21.3403 25.8497 21.6623C26.12 21.9844 26.2544 22.5333 26.2544 23.3096V30.1072H30.7316V22.2503C30.7316 20.6204 30.3829 19.4157 29.6858 18.6356C28.9896 17.8555 28.0241 17.4658 26.7912 17.4658Z" fill="black"/>
</svg>
